{"title":"Only the Brave-AC3-XviD-BRRip[Eng]2006-2010 2Lions-Team","uid":5940838,"size":1569843509,"categoryP":"video","categoryS":"movies","magnet":"?xt=urn:btih:8d004c02fd07d97f5d7da15d41179ab2d94af484&amp;dn=Only+the+Brave-AC3-XviD-BRRip%5BEng%5D2006-2010+2Lions-Team&amp;tr=udp%3A%2F%2Ftracker.openbittorrent.com%3A80&amp;tr=udp%3A%2F%2Fopen.demonii.com%3A1337&amp;tr=udp%3A%2F%2Ftracker.coppersurfer.tk%3A6969&amp;tr=udp%3A%2F%2Fexodus.desync.com%3A6969","seeders":0,"leechers":1,"uploader":"FatFreddy31","files":-1,"time":1289166461,"description":"A searing portrait of war and prejudice, 'Only the Brave' takes you on a haunting journey into the hearts and minds of the forgotten heroes of WWII - the Japanese-American 100th/442nd. In 1941, when Japan attacked Pearl Harbor, overnight Japanese Americans were put into internment camps for the duration of the war...\n &lt;a href=&quot;\nhttp://www.imdb.com/title/tt0410403/&quot; rel=&quot;nofollow&quot; target=&quot;_NEW&quot;&gt;\nhttp://www.imdb.com/title/tt0410403/&lt;/a&gt;\n\nReleasedate is 2010.\n\nSubtitles (srt) : Dutch.\n\nCovers included.\n\nNa de aanval op Pearl Harbor worden Japanse Amerikanen massaal in kampen geplaatst. Om hun loyaliteit te bewijzen schrijven 1400 van hen zich in bij het Amerikaanse leger. Zij vechten de rest van de tweede wereldoorlog in Noord Afrika, Italie en Frankrijk bij het honderdste infanterie bataljon.\n &lt;a href=&quot;\nhttp://www.moviemeter.nl/film/70385&quot; rel=&quot;nofollow&quot; target=&quot;_NEW&quot;&gt;\nhttp://www.moviemeter.nl/film/70385&lt;/a&gt;\n\nReleasedatum is 2010.\n\nOndertitels (srt) : Nederlands.\n\nHoesjes bijgevoegd.\n\nGeneral\nComplete name                    : Only the Brave-AC3-XviD-BRRip[Eng]2006-2010 2Lions-Team\\Only the Brave-AC3-XviD-BRRip[Eng]2006-2010 2Lions-Team.avi\nFormat                           : AVI\nFormat/Info                      : Audio Video Interleave\nFile size                        : 1.46 GiB\nDuration                         : 1h 40mn\nOverall bit rate                 : 2 088 Kbps\nWriting application              : VirtualDubMod 1.5.4.1 (build 2178/release)\nWriting library                  : VirtualDubMod build 2178/release\nSource                           : Only.The.Brave.2006.1080p.BluRay.x264-LCHD\n\nVideo\nID                               : 0\nFormat                           : MPEG-4 Visual\nFormat profile                   : Simple@L3\nFormat settings, BVOP            : No\nFormat settings, QPel            : No\nFormat settings, GMC             : No warppoints\nFormat settings, Matrix          : Default (H.263)\nCodec ID                         : XVID\nCodec ID/Hint                    : XviD\nDuration                         : 1h 40mn\nBit rate                         : 1 631 Kbps\nWidth                            : 720 pixels\nHeight                           : 400 pixels\nDisplay aspect ratio             : 16:9\nFrame rate                       : 23.976 fps\nResolution                       : 8 bits\nColorimetry                      : 4:2:0\nScan type                        : Progressive\nBits/(Pixel*Frame)               : 0.236\nStream size                      : 1.14 GiB (78%)\nWriting library                  : XviD 1.1.2 (UTC 2006-11-01)\n\nAudio\nID                               : 1\nFormat                           : AC-3\nFormat/Info                      : Audio Coding 3\nCodec ID                         : 2000\nDuration                         : 1h 40mn\nBit rate mode                    : Constant\nBit rate                         : 448 Kbps\nChannel(s)                       : 6 channels\nChannel positions                : Front: L C R, Surround: L R, LFE\nSampling rate                    : 48.0 KHz\nStream size                      : 321 MiB (21%)\nAlignment                        : Split accross interleaves\nInterleave, duration             : 42 ms (1.00 video frame)\nInterleave, preload duration     : 500 ms\n\nThanks to relentless for the Dutch subs.Nice job!\n \nBrought to you by Gollum\n\nDON T HIT AND RUN Niet gelijk afhaken als de FILM binnen is blijf seeden. \n\nDon`t quit after you finished the download, but keep seeding\n\nThere are fake torrents from uploaders who use our team name.\nThose are not ours, or members from our team.\nWe 2Lions-Team are not responsible for the fake posts on our name\n\nWij 2Lions-Team zijn niet verantwoordelijk voor die zieke FAKE posten die op onze naam worden gedaan\n\nPlease check our site !!!\n\nto the fakers , get a life !!!","torrent":{"xt":"urn:btih:8d004c02fd07d97f5d7da15d41179ab2d94af484","amp;dn":"Only+the+Brave-AC3-XviD-BRRip%5BEng%5D2006-2010+2Lions-Team","amp;tr":["udp%3A%2F%2Ftracker.openbittorrent.com%3A80","udp%3A%2F%2Fopen.demonii.com%3A1337","udp%3A%2F%2Ftracker.coppersurfer.tk%3A6969","udp%3A%2F%2Fexodus.desync.com%3A6969"],"infoHash":"8d004c02fd07d97f5d7da15d41179ab2d94af484","infoHashBuffer":{"type":"Buffer","data":[141,0,76,2,253,7,217,127,93,125,161,93,65,23,154,178,217,74,244,132]},"announce":[],"urlList":[]}}